<svg xmlns="http://www.w3.org/2000/svg" viewBox="0 0 179.90065 18.77306"><defs><style>.cls-1{fill:#004185;}.cls-2{fill:#db1830;}</style></defs><path class="cls-1" d="M65.63325,2.56676H76.95131V5.50334h-8.0384v3.044h7.07384v2.93679H68.91291V14.635h8.14557v2.93679H65.63325Z"/><path class="cls-1" d="M79.48641,2.56676h3.55826l3.94426,6.345,3.94426-6.345h3.55827V17.57181H91.2118V7.77553L86.98893,14.185h-.08582l-4.18-6.345v9.73181H79.48641Z"/><path class="cls-1" d="M97.49565,2.56676h6.13063c3.57983,0,5.74485,2.12211,5.74485,5.18742v.04291c0,3.47266-2.70088,5.27325-6.06637,5.27325h-2.5081v4.50147h-3.301Zm5.91629,7.56679a2.32358,2.32358,0,0,0,2.61527-2.27219V7.81844c0-1.47907-1.029-2.27219-2.67954-2.27219h-2.551v4.5873Z"/><path class="cls-1" d="M110.49352,10.1122v-.04291a7.97775,7.97775,0,0,1,15.94826-.04292v.04292a7.97775,7.97775,0,0,1-15.94826.04291Zm12.49716,0v-.04291a4.55892,4.55892,0,0,0-4.54459-4.716,4.48758,4.48758,0,0,0-4.50148,4.67311v.04292a4.5587,4.5587,0,0,0,4.54439,4.71582A4.48758,4.48758,0,0,0,122.99068,10.1122Z"/><path class="cls-1" d="M126.6421,2.56676H130.179l3.10823,10.05333,3.36548-10.05337h2.82941l3.36548,10.05337,3.10823-10.05333h3.45109l-5.12316,15.00505h-2.87232l-3.38683-9.66759-3.387,9.66759h-2.87232Z"/><path class="cls-1" d="M150.921,2.56676h11.31826V5.50334h-8.03839v3.044h7.07384v2.93679h-7.07384V14.635h8.14557v2.93679H150.921Z"/><path class="cls-1" d="M164.77412,2.56676h6.85949a5.97968,5.97968,0,0,1,4.373,1.52177,4.71035,4.71035,0,0,1,1.28628,3.42975v.04291a4.65976,4.65976,0,0,1-3.2154,4.65156l3.66544,5.35906h-3.85843l-3.2154-4.80164h-2.59371v4.80164h-3.30122Zm6.64514,7.28818c1.6078,0,2.52945-.85759,2.52945-2.12211V7.68992c0-1.41481-.98591-2.14367-2.59371-2.14367h-3.27966V9.85494Z"/><path class="cls-2" d="M60.73,2.60356C45.48688,6.19714,45.60834-1.3617,32.69347.22963L26.07966,3.30178C39.67333.888,39.96042,10.13389,58.33015,4.93432c.83683-.23686,1.63054-.465,2.39987-.661Z"/><path class="cls-2" d="M60.73,6.1789a53.09328,53.09328,0,0,0-8.00039,1.62681C33.39325,13.23994,33.9136,4.24683,19.6369,6.31285L13.03385,9.385c13.97167-1.88765,14.54585,6.85265,33.53326,1.63253C52.75718,9.31573,57.14245,8.84339,60.73,9.06087Z"/><path class="cls-2" d="M60.73,12.86334c-4.71881-1.06228-10.18787-1.693-20.09743,1.02558-19.62006,5.38255-19.30785-3.43-34.03074-1.49284L0,15.46822c14.26594-1.831,14.98366,6.801,34.33687,1.63255,14.35274-3.833,19.30518-1.04258,26.39315.43091Z"/><path class="cls-1" d="M178.60879,5.14969a1.29147,1.29147,0,1,1,1.29186-1.29186A1.2935,1.2935,0,0,1,178.60879,5.14969Zm0-2.38334a1.09187,1.09187,0,1,0,1.09226,1.09148A1.0927,1.0927,0,0,0,178.60879,2.76635Z"/><path class="cls-1" d="M178.14792,3.19854h.58227a.5255.5255,0,0,1,.37719.13123.39293.39293,0,0,1,.10844.28132V3.615a.39313.39313,0,0,1-.31.396l.35283.49427H178.986l-.321-.455h-.28721v.455h-.22984Zm.56577.64829c.16424,0,.26875-.08644.26875-.21845V3.62445c0-.13988-.101-.21688-.27071-.21688h-.334v.43926Z"/></svg>