<?xml version="1.0" encoding="UTF-8" standalone="no"?>
<!-- Created with Inkscape (http://www.inkscape.org/) -->

<svg
   xmlns:dc="http://purl.org/dc/elements/1.1/"
   xmlns:cc="http://creativecommons.org/ns#"
   xmlns:rdf="http://www.w3.org/1999/02/22-rdf-syntax-ns#"
   xmlns:svg="http://www.w3.org/2000/svg"
   xmlns="http://www.w3.org/2000/svg"
   xmlns:sodipodi="http://sodipodi.sourceforge.net/DTD/sodipodi-0.dtd"
   xmlns:inkscape="http://www.inkscape.org/namespaces/inkscape"
   width="269.98999"
   height="142.008"
   id="svg12267"
   version="1.1"
   inkscape:version="0.48.0 r9654"
   sodipodi:docname="ame.svg">
  <defs
     id="defs12269" />
  <sodipodi:namedview
     id="base"
     pagecolor="#ffffff"
     bordercolor="#666666"
     borderopacity="1.0"
     inkscape:pageopacity="0.0"
     inkscape:pageshadow="2"
     inkscape:zoom="1.979899"
     inkscape:cx="175.606"
     inkscape:cy="101.2228"
     inkscape:document-units="px"
     inkscape:current-layer="layer1"
     showgrid="false"
     inkscape:window-width="1366"
     inkscape:window-height="706"
     inkscape:window-x="-8"
     inkscape:window-y="-8"
     inkscape:window-maximized="1"
     fit-margin-top="0"
     fit-margin-left="0"
     fit-margin-right="0"
     fit-margin-bottom="0"
     showborder="false"
     inkscape:showpageshadow="false" />
  <metadata
     id="metadata12272">
    <rdf:RDF>
      <cc:Work
         rdf:about="">
        <dc:format>image/svg+xml</dc:format>
        <dc:type
           rdf:resource="http://purl.org/dc/dcmitype/StillImage" />
        <dc:title></dc:title>
      </cc:Work>
    </rdf:RDF>
  </metadata>
  <g
     inkscape:label="Layer 1"
     inkscape:groupmode="layer"
     id="layer1"
     transform="translate(-119.017,-93.33318)">
    <g
       id="g7881"
       transform="matrix(1.8749358,0,0,-1.8750009,332.8727,138.11998)">
      <path
         inkscape:connector-curvature="0"
         d="m 0,0 c -6.164,0.477 -0.998,3.342 -9.561,4.471 -20.839,2.748 -34.463,-5.288 -30.527,2.143 1.228,2.319 1.651,2.826 3.057,5.599 2.231,4.4 2.343,8.463 -4.454,10.153 -24.816,6.167 -68.32,-8.366 -71.105,-9.194 0,0 -0.681,-0.242 -1.072,-0.417 -1.073,-0.48 0.444,-0.243 0.444,-0.243 10.876,2.792 38.138,9.034 56.117,8.601 17.217,-0.414 22.685,-2.499 16.089,-13.685 -4.69,-7.953 -0.041,-6.781 1.834,-6.504 16.614,2.447 31.869,2.46 32.733,-0.139 0.668,-2.006 5.572,-2.414 5.725,-2.433 3.285,-0.4 5.583,-1.286 4.114,-3.667 -7.003,1.043 -16.17,-1.518 -20.103,-5.003 -0.238,-0.211 0.007,-0.207 0.167,-0.118 6.43,3.561 20.045,4.789 20.551,2.777 C 8.014,-2.689 6.616,-0.512 0,0"
         style="fill:#e31b23;fill-opacity:1;fill-rule:nonzero;stroke:none"
         id="path7883" />
    </g>
    <g
       id="g7773"
       transform="matrix(1.8749358,0,0,-1.8750009,136.92451,174.95415)">
      <path
         inkscape:connector-curvature="0"
         d="m 0,0 -5.241,0 -0.731,-1.77 c -0.53,-1.249 -0.429,-1.93 1.184,-2.316 l 0,-0.386 -4.763,0 0,0.386 c 1.436,0.228 2.142,1.476 2.772,3.02 l 4.234,10.216 1.607,0 4.486,-10.624 C 4.354,-3.359 5.01,-3.995 6.295,-4.086 l 0,-0.386 -6.824,0 0,0.386 c 1.84,0.318 1.916,0.772 1.386,2.043 L 0,0 z m -2.646,6.335 -2.142,-5.381 4.385,0 -2.243,5.381"
         style="fill:#002664;fill-opacity:1;fill-rule:nonzero;stroke:none"
         id="path7775" />
    </g>
    <g
       id="g7777"
       transform="matrix(1.8749358,0,0,-1.8750009,173.53038,179.85165)">
      <path
         inkscape:connector-curvature="0"
         d="m 0,0 c 0.134,-0.878 0.612,-1.377 1.702,-1.567 l 0,-0.293 -5.524,0 0,0.293 c 1.223,0.276 1.433,0.913 1.223,2.221 l -0.918,5.751 -0.037,0 -3.632,-8.265 -0.401,0 -3.593,8.265 -0.039,0 -0.974,-5.923 c -0.192,-1.171 0.058,-1.963 1.318,-2.049 l 0,-0.293 -4.051,0 0,0.293 c 1.204,0.051 1.72,0.671 1.987,2.221 l 1.109,6.578 c -0.44,0.413 -1.051,0.671 -1.624,0.689 l 0,0.293 4.032,0 2.924,-6.647 2.963,6.647 3.784,0 0,-0.293 C -0.898,7.731 -1.166,7.215 -1.013,6.285 L 0,0"
         style="fill:#002664;fill-opacity:1;fill-rule:nonzero;stroke:none"
         id="path7779" />
    </g>
    <g
       id="g7785"
       transform="matrix(1.8749358,0,0,-1.8750009,198.63952,167.58352)">
      <path
         inkscape:connector-curvature="0"
         d="m 0,0 c 0,0.844 -0.21,1.171 -1.414,1.378 l 0,0.293 5.312,0 c 3.097,0 4.339,-1.12 4.339,-2.532 0,-1.033 -0.65,-1.98 -2.255,-2.393 l 0,-0.034 c 1.242,-0.259 2.446,-3.479 3.46,-4.392 0.286,-0.258 0.534,-0.361 1.012,-0.43 l 0,-0.293 -3.23,0 c -1.223,1.309 -2.026,3.565 -2.886,4.339 -0.497,0.449 -0.879,0.465 -1.873,0.465 l 0,-3.098 c 0,-0.897 0.402,-1.275 1.433,-1.413 l 0,-0.293 -5.312,0 0,0.293 C -0.497,-8.041 0,-7.628 0,-6.819 L 0,0 z m 2.465,-3.03 c 2.121,-0.138 3.096,0.464 3.096,2.135 0,1.291 -0.802,1.997 -2.331,1.997 l -0.765,0 0,-4.132"
         style="fill:#002664;fill-opacity:1;fill-rule:nonzero;stroke:none"
         id="path7787" />
    </g>
    <g
       id="g7781"
       transform="matrix(1.8749358,0,0,-1.8750009,192.057,176.8179)">
      <path
         inkscape:connector-curvature="0"
         d="m 0,0 -0.363,0 c -0.134,0.879 -0.631,1.292 -1.548,1.292 l -1.969,0 0,-2.962 c 0,-0.912 0.421,-1.239 1.529,-1.239 l 0.65,0 c 1.376,0 1.988,0.912 2.351,1.876 l 0.324,0 -0.21,-2.445 -8.524,0 0,0.293 c 1.243,0.241 1.415,0.585 1.415,1.619 l 0,6.474 c 0,0.878 -0.23,1.188 -1.415,1.395 l 0,0.293 8.391,0 0,-2.24 -0.325,0 C -0.057,5.648 -0.478,6.027 -1.72,6.027 l -2.16,0 0,-4.167 1.969,0 c 0.898,0 1.319,0.345 1.548,1.257 L 0,3.117 0,0"
         style="fill:#002664;fill-opacity:1;fill-rule:nonzero;stroke:none"
         id="path7783" />
    </g>
    <g
       id="g7793"
       transform="matrix(1.8749358,0,0,-1.8750009,248.21245,179.9799)">
      <path
         inkscape:connector-curvature="0"
         d="m 0,0 c -1.127,-1.396 -2.58,-2.05 -4.529,-2.05 -3.421,0 -5.772,2.1 -5.772,5.148 0,3.1 2.599,5.442 6.04,5.442 1.662,0 2.599,-0.603 3.153,-0.603 0.286,0 0.497,0.155 0.688,0.517 l 0.306,0 0,-3.685 -0.306,0 c -0.516,2.031 -1.911,3.202 -3.803,3.202 -2.084,0 -3.402,-1.704 -3.402,-4.373 0,-3.392 1.911,-4.667 4.032,-4.667 1.357,0 2.428,0.483 3.593,1.603 L 0,0"
         style="fill:#002664;fill-opacity:1;fill-rule:nonzero;stroke:none"
         id="path7795" />
    </g>
    <g
       id="g7877"
       transform="matrix(1.8749358,0,0,-1.8750009,306.30621,161.48864)">
      <path
         inkscape:connector-curvature="0"
         d="m 0,0 0.263,0 0,0.724 0.282,0 L 1.023,0 1.285,0 0.791,0.744 c 0.263,0.028 0.466,0.171 0.466,0.477 0,0.343 -0.207,0.506 -0.589,0.506 L 0,1.727 0,0 z m 0.263,0.963 0,0.525 0.357,0 c 0.184,0 0.374,-0.028 0.374,-0.255 0,-0.258 -0.211,-0.27 -0.449,-0.27 l -0.282,0 z m -1.15,-0.092 c 0,-0.815 0.66,-1.475 1.476,-1.475 0.816,0 1.476,0.66 1.476,1.475 0,0.816 -0.66,1.476 -1.476,1.476 -0.816,0 -1.476,-0.66 -1.476,-1.476 z m 1.476,-1.237 c -0.673,0 -1.214,0.553 -1.214,1.237 0,0.684 0.541,1.238 1.214,1.238 0.672,0 1.213,-0.554 1.213,-1.238 0,-0.684 -0.541,-1.237 -1.213,-1.237"
         style="fill:#e31b23;fill-opacity:1;fill-rule:nonzero;stroke:none"
         id="path7879" />
    </g>
    <g
       id="g7789"
       transform="matrix(1.8749358,0,0,-1.8750009,225.18336,180.1404)">
      <path
         inkscape:connector-curvature="0"
         d="m 0,0 c 0,-0.897 0.248,-1.155 1.414,-1.413 l 0,-0.293 -5.294,0 0,0.293 c 1.376,0.31 1.415,0.654 1.415,1.636 l 0,6.44 c 0,0.895 -0.249,1.153 -1.415,1.412 l 0,0.293 5.294,0 0,-0.293 C 0.077,7.799 0,7.42 0,6.456 L 0,0"
         style="fill:#002664;fill-opacity:1;fill-rule:nonzero;stroke:none"
         id="path7791" />
    </g>
    <g
       id="g7797"
       transform="matrix(1.8749358,0,0,-1.8750009,261.24775,176.97915)">
      <path
         inkscape:connector-curvature="0"
         d="m 0,0 -3.975,0 -0.554,-1.343 c -0.402,-0.947 -0.325,-1.464 0.898,-1.756 l 0,-0.293 -3.612,0 0,0.293 c 1.089,0.172 1.624,1.12 2.102,2.291 l 3.211,7.748 1.528,0 3.403,-8.059 c 0.611,-1.429 1.108,-1.911 2.083,-1.98 l 0,-0.293 -5.486,0 0,0.293 c 1.396,0.241 1.454,0.585 1.052,1.549 L 0,0 z m -2.007,4.805 -1.624,-4.081 3.325,0 -1.701,4.081"
         style="fill:#002664;fill-opacity:1;fill-rule:nonzero;stroke:none"
         id="path7799" />
    </g>
    <g
       id="g7801"
       transform="matrix(1.8749358,0,0,-1.8750009,285.32755,164.45039)">
      <path
         inkscape:connector-curvature="0"
         d="m 0,0 0,-0.293 c 1.185,-0.241 1.414,-0.706 1.414,-1.929 l 0,-4.528 -6.536,6.75 -3.364,0 0,-0.293 c 0.459,-0.086 0.63,-0.207 1.491,-0.999 l 0,-6.749 c 0.019,-0.983 -0.268,-1.568 -1.471,-1.74 l 0,-0.293 3.859,0 0,0.293 c -1.28,0.19 -1.642,0.499 -1.642,1.601 l 0,6.165 7.926,-8.059 0.483,0 0,8.127 c 0,0.896 0.344,1.584 1.624,1.654 L 3.784,0 0,0"
         style="fill:#002664;fill-opacity:1;fill-rule:nonzero;stroke:none"
         id="path7803" />
    </g>
    <g
       id="g7809"
       transform="matrix(1.8749358,0,0,-1.8750009,250.89361,205.40642)">
      <path
         inkscape:connector-curvature="0"
         d="m 0,0 c -0.171,-0.921 0.015,-1.187 1.067,-1.453 l -0.056,-0.301 -5.002,0 0.056,0.301 c 1.359,0.319 1.461,0.674 1.649,1.682 l 1.231,6.624 c 0.171,0.921 -0.014,1.187 -1.067,1.453 l 0.056,0.3 5.002,0 -0.056,-0.3 C 1.564,8.022 1.419,7.633 1.234,6.64 L 0,0"
         style="fill:#002664;fill-opacity:1;fill-rule:nonzero;stroke:none"
         id="path7811" />
    </g>
    <g
       id="g7805"
       transform="matrix(1.8749358,0,0,-1.8750009,240.07148,205.67079)">
      <path
         inkscape:connector-curvature="0"
         d="m 0,0 -0.4,0 c 0.011,1.2 -0.511,1.686 -1.83,1.686 l -2.142,0 -0.777,-4.18 c -0.222,-1.2 0.116,-1.662 1.348,-1.87 l -0.073,-0.393 -6.065,0 0.073,0.393 c 1.479,0.231 1.879,0.739 2.15,2.193 l 1.618,8.705 c 0.205,1.11 -0.083,1.455 -1.403,1.825 l 0.073,0.392 9.36,0 -0.19,-2.54 -0.399,0 C 1.069,7.528 0.425,7.989 -0.822,7.989 l -2.378,0 -1.031,-5.541 2.143,0 c 1.294,0 1.879,0.485 2.464,1.732 l 0.4,0 L 0,0"
         style="fill:#002664;fill-opacity:1;fill-rule:nonzero;stroke:none"
         id="path7807" />
    </g>
    <g
       id="g7813"
       transform="matrix(1.8749358,0,0,-1.8750009,274.24068,208.92767)">
      <path
         inkscape:connector-curvature="0"
         d="M 0,0 -0.343,0 -6.382,8.412 -7.56,2.072 C -7.771,0.938 -7.487,0.62 -6.313,0.425 l -0.057,-0.301 -3.646,0 0.055,0.301 c 1.17,0.177 1.553,0.779 1.723,1.789 l 1.29,6.942 c -0.661,0.815 -0.801,0.939 -1.217,1.028 l 0.056,0.3 3.178,0 4.885,-6.942 0.865,4.658 c 0.234,1.257 0.106,1.735 -0.967,1.984 l 0.056,0.3 3.575,0 -0.057,-0.3 C 2.204,10.113 1.748,9.404 1.576,8.483 L 0,0"
         style="fill:#002664;fill-opacity:1;fill-rule:nonzero;stroke:none"
         id="path7815" />
    </g>
    <g
       id="g7817"
       transform="matrix(1.8749358,0,0,-1.8750009,290.01639,202.15329)">
      <path
         inkscape:connector-curvature="0"
         d="M 0,0 -3.756,0 -4.37,-1.382 c -0.444,-0.973 -0.407,-1.505 0.729,-1.806 l -0.019,-0.301 -3.414,0 0.021,0.301 c 1.041,0.177 1.61,1.151 2.141,2.355 l 3.558,7.97 1.445,0 2.667,-8.288 c 0.482,-1.47 0.919,-1.966 1.835,-2.037 l -0.02,-0.301 -5.183,0 0.021,0.301 c 1.334,0.249 1.412,0.602 1.097,1.594 L 0,0 z m -1.571,4.942 -1.811,-4.199 3.142,0 -1.331,4.199"
         style="fill:#002664;fill-opacity:1;fill-rule:nonzero;stroke:none"
         id="path7819" />
    </g>
    <g
       id="g7821"
       transform="matrix(1.8749358,0,0,-1.8750009,315.26128,208.92767)">
      <path
         inkscape:connector-curvature="0"
         d="M 0,0 -0.343,0 -6.381,8.412 -7.559,2.072 C -7.77,0.938 -7.486,0.62 -6.313,0.425 l -0.055,-0.301 -3.648,0 0.057,0.301 c 1.17,0.177 1.552,0.779 1.721,1.789 l 1.291,6.942 c -0.661,0.815 -0.8,0.939 -1.217,1.028 l 0.055,0.3 3.179,0 L -0.046,3.542 0.82,8.2 c 0.233,1.257 0.105,1.735 -0.968,1.984 l 0.056,0.3 3.575,0 -0.055,-0.3 C 2.205,10.113 1.748,9.404 1.577,8.483 L 0,0"
         style="fill:#002664;fill-opacity:1;fill-rule:nonzero;stroke:none"
         id="path7823" />
    </g>
    <g
       id="g7825"
       transform="matrix(1.8749358,0,0,-1.8750009,337.76043,205.24216)">
      <path
         inkscape:connector-curvature="0"
         d="m 0,0 c -1.332,-1.435 -2.829,-2.108 -4.671,-2.108 -3.233,0 -5.052,2.161 -4.469,5.295 0.592,3.189 3.495,5.597 6.745,5.597 1.572,0 2.341,-0.619 2.864,-0.619 0.272,0 0.5,0.159 0.75,0.531 l 0.289,0 -0.705,-3.79 -0.289,0 C 0.415,6.995 -0.679,8.2 -2.467,8.2 c -1.968,0 -3.54,-1.754 -4.05,-4.498 -0.648,-3.489 0.914,-4.8 2.918,-4.8 1.282,0 2.386,0.496 3.7,1.647 L 0,0"
         style="fill:#002664;fill-opacity:1;fill-rule:nonzero;stroke:none"
         id="path7827" />
    </g>
    <g
       id="g7829"
       transform="matrix(1.8749358,0,0,-1.8750009,347.59079,205.40642)">
      <path
         inkscape:connector-curvature="0"
         d="m 0,0 c -0.172,-0.921 0.014,-1.187 1.066,-1.453 l -0.056,-0.301 -5.001,0 0.055,0.301 c 1.36,0.319 1.461,0.674 1.649,1.682 l 1.231,6.624 C -0.885,7.774 -1.07,8.04 -2.122,8.306 l 0.056,0.3 5.001,0 -0.056,-0.3 C 1.563,8.022 1.418,7.633 1.233,6.64 L 0,0"
         style="fill:#002664;fill-opacity:1;fill-rule:nonzero;stroke:none"
         id="path7831" />
    </g>
    <g
       id="g7833"
       transform="matrix(1.8749358,0,0,-1.8750009,364.95832,202.15329)">
      <path
         inkscape:connector-curvature="0"
         d="M 0,0 -3.756,0 -4.37,-1.382 c -0.444,-0.973 -0.407,-1.505 0.729,-1.806 l -0.019,-0.301 -3.414,0 0.021,0.301 c 1.04,0.177 1.61,1.151 2.141,2.355 l 3.558,7.97 1.445,0 2.668,-8.288 c 0.481,-1.47 0.917,-1.966 1.833,-2.037 l -0.019,-0.301 -5.183,0 0.02,0.301 c 1.335,0.249 1.412,0.602 1.099,1.594 L 0,0 z m -1.571,4.942 -1.811,-4.199 3.141,0 -1.33,4.199"
         style="fill:#002664;fill-opacity:1;fill-rule:nonzero;stroke:none"
         id="path7835" />
    </g>
    <g
       id="g7837"
       transform="matrix(1.8749358,0,0,-1.8750009,379.82544,205.50767)">
      <path
         inkscape:connector-curvature="0"
         d="m 0,0 c -0.158,-0.849 0.154,-1.115 1.454,-1.115 1.299,0 1.967,0.39 3.136,2.107 l 0.307,0 -0.808,-2.692 -8.07,0 0.056,0.301 c 1.265,0.301 1.441,0.567 1.648,1.682 l 1.231,6.624 C -0.875,7.828 -1.06,8.094 -2.112,8.36 l 0.056,0.3 5.002,0 -0.057,-0.3 C 1.792,8.094 1.464,7.881 1.296,6.979 L 0,0"
         style="fill:#002664;fill-opacity:1;fill-rule:nonzero;stroke:none"
         id="path7839" />
    </g>
    <g
       id="g7841"
       transform="matrix(1.8749358,0,0,-1.8750009,246.00565,230.2693)">
      <path
         inkscape:connector-curvature="0"
         d="m 0,0 -0.023,0 c -0.354,-0.753 -0.822,-1.108 -1.781,-1.108 -1.78,0 -2.42,1.324 -2.42,4.236 0,2.911 0.822,4.234 2.706,4.234 2.043,0 2.386,-1.609 2.386,-2.351 l 0,-0.149 -1.233,0 0,0.195 c 0,0.605 -0.251,1.324 -1.142,1.324 -0.924,0 -1.416,-0.617 -1.416,-3.219 0,-2.625 0.435,-3.287 1.313,-3.287 0.994,-0.012 1.359,0.707 1.359,2.488 l -1.37,0 0,0.981 2.603,0 0,-4.291 L 0,-0.947 0,0"
         style="fill:#002664;fill-opacity:1;fill-rule:nonzero;stroke:none"
         id="path7843" />
    </g>
    <g
       id="g7845"
       transform="matrix(1.8749358,0,0,-1.8750009,253.88227,223.56992)">
      <path
         inkscape:connector-curvature="0"
         d="m 0,0 0,2.648 1.106,0 C 1.963,2.648 2.34,2.191 2.34,1.323 2.34,0.502 1.871,0 1.039,0 L 0,0 z m -1.302,-4.52 1.302,0 0,3.538 1.061,0 c 0.891,0 1.164,-0.388 1.187,-1.279 0.023,-0.594 0.012,-1.05 0.057,-1.541 0.035,-0.319 0.092,-0.57 0.217,-0.718 l 1.473,0 c -0.172,0.113 -0.366,0.308 -0.388,0.707 -0.024,0.491 -0.034,1.13 -0.046,1.655 -0.045,1.142 -0.468,1.587 -1.279,1.667 l 0,0.023 C 3.172,-0.332 3.64,0.48 3.64,1.529 3.64,3.059 2.716,3.63 1.574,3.63 l -2.876,0 0,-8.15"
         style="fill:#002664;fill-opacity:1;fill-rule:nonzero;stroke:none"
         id="path7847" />
    </g>
    <g
       id="g7849"
       transform="matrix(1.8749358,0,0,-1.8750009,269.11987,230.50368)">
      <path
         inkscape:connector-curvature="0"
         d="m 0,0 c -0.777,0 -1.394,0.479 -1.394,3.287 0,2.739 0.617,3.219 1.394,3.219 0.776,0 1.392,-0.48 1.392,-3.219 C 1.392,0.479 0.776,0 0,0 z m 0,-0.983 c 1.872,0 2.693,1.324 2.693,4.236 0,2.911 -0.821,4.234 -2.693,4.234 -1.873,0 -2.694,-1.323 -2.694,-4.234 0,-2.912 0.821,-4.236 2.694,-4.236"
         style="fill:#002664;fill-opacity:1;fill-rule:nonzero;stroke:none"
         id="path7851" />
    </g>
    <g
       id="g7853"
       transform="matrix(1.8749358,0,0,-1.8750009,280.077,216.76367)">
      <path
         inkscape:connector-curvature="0"
         d="m 0,0 0,-5.845 c 0,-1.027 0.411,-1.483 1.198,-1.483 0.776,0 1.188,0.456 1.188,1.483 l 0,5.845 1.301,0 0,-5.742 c 0,-1.883 -0.936,-2.569 -2.489,-2.569 -1.563,0 -2.499,0.686 -2.499,2.569 L -1.301,0 0,0"
         style="fill:#002664;fill-opacity:1;fill-rule:nonzero;stroke:none"
         id="path7855" />
    </g>
    <g
       id="g7857"
       transform="matrix(1.8749358,0,0,-1.8750009,293.26155,218.60492)">
      <path
         inkscape:connector-curvature="0"
         d="m 0,0 0.833,0 c 1.039,0 1.392,-0.536 1.392,-1.416 0,-1.027 -0.605,-1.403 -1.301,-1.403 L 0,-2.819 0,0 z m -1.302,-7.168 1.302,0 0,3.367 1.141,0 c 1.529,0 2.386,0.947 2.386,2.408 0,1.393 -0.685,2.375 -2.249,2.375 l -2.58,0 0,-8.15"
         style="fill:#002664;fill-opacity:1;fill-rule:nonzero;stroke:none"
         id="path7859" />
    </g>
    <g
       id="g7861"
       transform="matrix(1.8749358,0,0,-1.8750009,299.89694,229.2193)">
      <path
         inkscape:connector-curvature="0"
         d="m 0,0 1.301,0 0,-1.507 C 1.301,-2.41 1.005,-3.071 0,-3.265 l 0,0.662 c 0.354,0.092 0.571,0.422 0.571,0.924 l 0,0.172 L 0,-1.507 0,0"
         style="fill:#002664;fill-opacity:1;fill-rule:nonzero;stroke:none"
         id="path7863" />
    </g>
    <path
       inkscape:connector-curvature="0"
       d="m 312.18338,232.04493 2.43929,0 0,-15.28126 -2.43929,0 0,15.28126 z"
       style="fill:#002664;fill-opacity:1;fill-rule:nonzero;stroke:none"
       id="path7865" />
    <g
       id="g7867"
       transform="matrix(1.8749358,0,0,-1.8750009,318.53941,216.76367)">
      <path
         inkscape:connector-curvature="0"
         d="m 0,0 1.587,0 2.363,-6.073 0.023,0 0,6.073 1.233,0 0,-8.15 -1.587,0 -2.363,6.232 -0.023,0 0,-6.232 L 0,-8.15 0,0"
         style="fill:#002664;fill-opacity:1;fill-rule:nonzero;stroke:none"
         id="path7869" />
    </g>
    <g
       id="g7871"
       transform="matrix(1.8749358,0,0,-1.8750009,341.71737,226.56805)">
      <path
         inkscape:connector-curvature="0"
         d="m 0,0 0,-0.171 c 0,-1.472 -0.593,-2.911 -2.511,-2.911 -2.055,0 -2.694,1.324 -2.694,4.236 0,2.911 0.639,4.234 2.706,4.234 2.317,0 2.453,-1.712 2.453,-2.557 l 0,-0.147 -1.3,0 0,0.136 c 0,0.753 -0.229,1.621 -1.165,1.587 -0.958,0 -1.392,-0.594 -1.392,-3.219 0,-2.625 0.434,-3.287 1.392,-3.287 1.085,0 1.211,1.21 1.211,1.962 L -1.3,0 0,0"
         style="fill:#002664;fill-opacity:1;fill-rule:nonzero;stroke:none"
         id="path7873" />
    </g>
    <path
       inkscape:connector-curvature="0"
       d="m 344.6329,232.04493 2.44116,0 0,-2.82563 -2.44116,0 0,2.82563 z"
       style="fill:#002664;fill-opacity:1;fill-rule:nonzero;stroke:none"
       id="path7875" />
  </g>
</svg>
