<svg version="1.1" baseProfile="full" xmlns="http://www.w3.org/2000/svg" width="400" height="83">
    <g fill="#004E32" stroke="#004E32" stroke-width="0.32327601">
        <path d="m 181.66281,34.818062 0,-25.40174 10.51092,0 c 8.99253,0 14.24825,4.73622 14.24825,12.2706 0,8.17988 -5.60547,13.13114 -15.29876,13.13114 l -9.46041,0 z m -20.88143,46.3699 30.93023,0 c 9.2296,0 16.82425,-0.2159 22.98666,-2.9207 8.5909,-3.7871 12.88573,-10.1809 12.88573,-18.8535 0,-10.8426 -7.89383,-18.2114 -23.02099,-20.592 12.79848,-2.5969 18.96745,-8.41635 18.96745,-18.53378 0,-14.0261 -9.77687,-19.24724 -29.4878,-19.24724 l -33.26128,0 0,3.91599 c 0,1.63157 0.49171,2.71876 1.63838,3.26315 l 1.22814,0.65231 c 1.47411,0.75945 1.71985,1.62005 1.71985,3.88036 l 0,56.74461 c 0,2.2768 -0.24574,3.1442 -1.71985,3.9005 l -1.22814,0.6505 c -1.14667,0.5404 -1.63838,1.6226 -1.63838,3.2453 l 0,3.8945 z m 20.88143,-8.5466 0,-29.6 8.06121,0 c 13.43613,0 20.5647,5.6385 20.5647,15.396 0,9.0001 -6.89491,14.204 -19.2779,14.204" />
        <path d="m 248.24195,48.736162 c 0.93707,-6.6077 4.56883,-10.2018 9.60634,-10.2018 5.27065,0 8.66898,3.7101 9.01975,10.2018 l -18.62609,0 z m 28.48497,17.2212 c -4.52352,5.4679 -8.81438,7.6776 -15.24714,7.6776 -9.02137,0 -14.0586,-5.9324 -14.17595,-16.9843 l 34.75845,0 c 0,-0.5823 0,-1.1644 0,-1.6302 0,-14.3992 -10.20598,-24.2137 -24.33163,-24.2137 -14.96553,0 -26.25479,11.2059 -26.25479,26.0763 0,15.473 10.94084,25.9464 27.30925,25.9464 8.31556,0 13.18593,-2.4444 18.86997,-7.4492 2.43586,-2.0947 3.59508,-3.84 3.59508,-4.7695 0,-0.5821 -0.34712,-1.1629 -0.6958,-1.5129" />
        <path d="m 314.92666,56.491362 0,8.5037 c 0,6.0577 -3.15704,8.9684 -8.65405,8.9684 -4.09281,0 -6.54908,-2.3284 -6.54908,-6.5223 0,-6.9898 5.02858,-10.7161 15.20313,-10.9498 z m 2.32843,19.6062 c 2.09369,4.4171 5.58529,6.6248 10.7061,6.6248 6.51712,0 10.93952,-4.5335 10.93952,-6.6248 0,-0.6968 0,-1.0455 -0.34975,-1.5113 l -1.86131,-2.5598 c -1.04817,0.3511 -1.86134,0.4671 -2.55976,0.4671 -3.84132,0 -4.65606,-1.8676 -4.65606,-7.007 l 0,-14.1063 c 0,-13.4154 -8.26241,-20.74693 -23.66858,-20.74693 -10.62121,0 -17.25492,5.00363 -17.25492,10.45453 0,4.1573 2.32738,6.6979 6.40108,6.6979 4.42237,0 7.46075,-3.2333 7.81179,-8.7772 1.28682,-0.2311 2.57364,-0.4621 3.74309,-0.4621 4.67729,0 8.42037,3.8117 8.42037,9.7014 0,0.2311 0,0.5777 0,0.809 -20.09132,1.2779 -30.21634,7.7856 -30.21634,19.4652 0,8.505 6.51712,14.3163 17.00107,14.3163 6.31515,0 11.22741,-2.0923 15.5437,-6.7408" />
        <path d="m 341.84188,78.117062 c 0,-1.6341 0.93185,-3.0373 1.9787,-3.5033 l 1.39657,-0.5848 c 1.86134,-0.8168 2.09502,-1.9849 2.09502,-4.3223 l 0,-26.3967 c 0,-2.2195 -0.11611,-3.2708 -1.74527,-4.2055 l -1.28028,-0.7008 c -0.93183,-0.4671 -1.62895,-1.8681 -1.62895,-3.5042 l 0,-3.114 18.90013,-1.0182 0,2.5633 c 0,1.7314 0,3.1164 -0.34738,4.387 4.51958,-4.8491 10.08364,-7.27365 16.34195,-7.27365 11.58369,0 16.79645,6.92675 16.79645,21.23185 l 0,18.0561 c 0,2.33 0.23368,3.4942 2.09502,4.3113 l 1.51264,0.5821 c 1.0471,0.4645 1.86289,1.8639 1.86289,3.4942 l 0,3.0787 -24.81654,0 0,-3.0787 c 0,-1.6303 0.69581,-3.0297 1.62267,-3.4942 l 1.27554,-0.5821 c 1.62267,-0.9321 1.73873,-2.0976 1.73873,-4.3113 l 0,-18.755 c 0,-7.2226 -2.20215,-10.8347 -7.41885,-10.8347 -3.70903,0 -6.83805,1.6313 -10.1997,5.01 l 0,24.5797 c 0,2.2137 0.23238,3.3792 1.85505,4.3113 l 1.15922,0.5821 c 0.92714,0.4645 1.62162,1.8639 1.62162,3.4942 l 0,3.0787 -24.81523,0" />
        <path d="m 149.22727,67.043462 c 4.29296,0 7.74683,3.2037 7.74683,7.1865 0,4.069 -3.45387,7.2724 -7.74683,7.2724 -4.2935,0 -7.74657,-3.2894 -7.74657,-7.2724 0,-3.9828 3.35983,-7.1865 7.74657,-7.1865" />
        <path d="m 0.16163801,77.357862 c 0,-1.6302 0.49069,-2.7174 1.63603999,-3.2605 l 1.22682,-0.6528 c 1.47309,-0.7603 1.71802,-1.6266 1.71802,-3.8995 l 0,-56.80561 c 0,-2.27236 -0.24493,-3.13819 -1.71802,-3.89503 L 1.797678,8.195252 C 0.65232801,7.654012 0.16163801,6.572062 0.16163801,4.949122 l 0,-3.83321 27.06795999,0 0,3.83321 c 0,1.7314 -0.65206,2.70489 -1.9559,3.24613 l -1.38584,0.64917 c -1.54827,0.6489 -2.03763,1.51446 -2.03763,3.89503 l 0,59.83481 17.17265,0 c 4.30633,0 8.14714,-2.2716 10.00898,-6.1671 1.74529,-3.5702 1.97843,-5.6272 5.35293,-5.6272 l 3.60791,0 0,20.9257 c -6.40108,-0.2159 -11.75401,-0.4331 -16.17638,-0.4331 l -41.65467999,0" />
        <path d="m 80.334118,77.357862 c 0,-1.6302 0.49067,-2.7174 1.63602,-3.2605 l 1.22683,-0.6528 c 1.4728,-0.7603 1.71803,-1.6266 1.71803,-3.8995 l 0,-56.80561 c 0,-2.27236 -0.24523,-3.13819 -1.71803,-3.89503 l -1.22683,-0.64917 c -1.14535,-0.54124 -1.63602,-1.62319 -1.63602,-3.24613 l 0,-3.83321 27.068212,0 0,3.83321 c 0,1.7314 -0.65233,2.70489 -1.95617,3.24613 l -1.38584,0.64917 c -1.54827,0.6489 -2.03764,1.51446 -2.03764,3.89503 l 0,59.83481 17.17266,0 c 4.30633,0 8.14634,-2.2716 10.00898,-6.1671 1.74529,-3.5702 1.97818,-5.6272 5.3532,-5.6272 l 3.60763,0 0,20.9257 c -6.40107,-0.2159 -11.75398,-0.4331 -16.17637,-0.4331 l -41.654662,0" />
        <path d="m 69.101698,67.155862 c 4.2935,0 7.74659,3.2026 7.74659,7.1852 0,4.07 -3.45309,7.2726 -7.74659,7.2726 -4.29349,0 -7.74683,-3.2898 -7.74683,-7.2726 0,-3.9826 3.36035,-7.1852 7.74683,-7.1852" />
    </g>
</svg>
