<?xml version="1.0" encoding="UTF-8" standalone="no"?>
<!-- Created with Inkscape (http://www.inkscape.org/) -->

<svg
   xmlns:dc="http://purl.org/dc/elements/1.1/"
   xmlns:cc="http://creativecommons.org/ns#"
   xmlns:rdf="http://www.w3.org/1999/02/22-rdf-syntax-ns#"
   xmlns:svg="http://www.w3.org/2000/svg"
   xmlns="http://www.w3.org/2000/svg"
   xmlns:sodipodi="http://sodipodi.sourceforge.net/DTD/sodipodi-0.dtd"
   xmlns:inkscape="http://www.inkscape.org/namespaces/inkscape"
   width="79.598244"
   height="83.017792"
   viewBox="0 0 79.598243 83.017793"
   id="svg8096"
   version="1.1"
   inkscape:version="0.91 r13725"
   sodipodi:docname="nationwide insurance.svg">
  <defs
     id="defs8098" />
  <sodipodi:namedview
     id="base"
     pagecolor="#ffffff"
     bordercolor="#666666"
     borderopacity="1.0"
     inkscape:pageopacity="0.0"
     inkscape:pageshadow="2"
     inkscape:zoom="5.9108391"
     inkscape:cx="40.964935"
     inkscape:cy="36.826946"
     inkscape:document-units="px"
     inkscape:current-layer="layer1"
     showgrid="false"
     fit-margin-top="0"
     fit-margin-left="0"
     fit-margin-right="0"
     fit-margin-bottom="0"
     units="px"
     inkscape:window-width="1280"
     inkscape:window-height="744"
     inkscape:window-x="-4"
     inkscape:window-y="-4"
     inkscape:window-maximized="1" />
  <metadata
     id="metadata8101">
    <rdf:RDF>
      <cc:Work
         rdf:about="">
        <dc:format>image/svg+xml</dc:format>
        <dc:type
           rdf:resource="http://purl.org/dc/dcmitype/StillImage" />
        <dc:title></dc:title>
      </cc:Work>
    </rdf:RDF>
  </metadata>
  <g
     inkscape:label="Layer 1"
     inkscape:groupmode="layer"
     id="layer1"
     transform="translate(-421.89221,-522.57249)">
    <g
       id="g7479"
       transform="matrix(1.25,0,0,-1.25,473.0362,578.16749)">
      <path
         d="m 0,0 9.658,0 0,31.878 -8.839,0 0,-19.862 -2.565,2.512 0,15.833 c -0.046,9.304 1.065,13.715 1.065,13.715 -2.993,0 -4.544,-2.834 -4.891,-3.672 -1.68,-0.185 -3.057,-1.153 -3.979,-3.035 -0.521,-1.064 -0.781,-2.096 -0.874,-2.601 -3.541,-0.816 -3.848,-7.122 -3.615,-8.255 l -5.499,5.365 -9.632,0 0,-31.878 8.838,0 0,19.265 c 0,0 4.273,-4.048 4.273,-4.048 0.389,-1.161 0.766,-1.626 0.766,-1.626 l -1.678,1.438 c -0.303,-3.127 0.577,-4.731 1.393,-5.916 l -2.039,1.729 c -0.159,-3.105 1.34,-5.01 2.259,-5.828 l -2.697,1.323 c -0.185,-1.859 1.68,-4.581 2.762,-5.106 l -2.275,0.339 c 0.495,-2.562 2.275,-3.483 2.275,-3.483 0,0 -3.886,0.081 -5.674,0.081 -4.973,0 -8.238,-0.471 -8.238,-0.471 0,0 2.201,-2.188 5.013,-2.289 l -2.504,-1.545 c 1.818,-0.593 3.547,-0.387 3.547,-0.387 l -1.447,-1.73 c 0,0 4.554,1.75 6.475,1.617 1.531,-0.106 8.672,-2.89 13.467,-2.89 3.217,0 5.549,1.231 7.421,2.221 1.143,0.603 2.129,1.092 3.1,1.241 1.738,0.267 2.521,-0.366 2.521,-0.366 0.177,0.731 0.715,2.577 -2.104,3.029 -0.11,0.502 -0.598,1.158 -1.328,1.268 -1.514,0.23 -7.886,0.721 -8.072,0.732 -0.547,0.033 -2.385,0.388 -0.695,2.809 0.128,0.183 0.982,1.259 0.982,1.259 L 0,0 Z M -0.227,-2.382 C 1.865,-2.543 3.351,-2.683 4.844,-2.87 5.408,-2.941 5.632,-3.593 5.707,-3.899 4.992,-3.722 3.862,-3.675 3.862,-3.675 L 3.8,-4.352 c 0,0 0.966,0.276 2.024,0.288 0,0 2.171,0.01 2.067,-1.456 C 7.3,-5.11 6.088,-5.273 5.746,-5.33 4.655,-5.509 3.619,-6.014 2.419,-6.648 1.32,-7.228 0.135,-7.852 -1.256,-8.274 c 0.609,0.592 2.202,2.349 2.202,2.349 l -2.123,0.74 1.738,1.516 -2.67,1.445 c 0.666,-0.056 1.297,-0.114 1.882,-0.158 m -3.086,5.71 c -0.984,-1.141 -2.26,-2.763 -1.984,-3.946 0,0 0,-0.001 10e-4,-0.001 0.205,-0.98 1.587,-1.583 1.587,-1.583 l 2.972,-1.611 -1.929,-1.683 2.314,-0.73 c 0,0 -2.121,-2.175 -2.365,-2.393 -0.605,-0.102 -1.248,-0.163 -1.938,-0.163 -4.91,0 -11.738,2.898 -13.427,2.919 -2.037,0.025 -4.595,-1.15 -4.595,-1.15 l 1.335,1.447 c 0,0 -1.748,-0.354 -3.443,-0.211 l 2.39,1.624 c -2.1,0.068 -3.939,0.693 -4.805,1.306 0,0 3.865,0.306 9.107,0.25 2.121,-0.023 5.716,-0.235 5.716,-0.235 -1.777,0.755 -3.439,1.75 -4.152,3.499 l 3.39,-0.511 c -1.423,0.871 -3.489,3.052 -3.87,4.741 l 3.779,-1.325 c -0.67,0.728 -3.008,2.916 -3.428,5.453 l 2.991,-1.882 c -0.784,0.79 -2.908,4.982 -2.547,6.208 l 2.788,-1.875 c -1.335,1.651 -2.897,6.024 -1.834,7.727 0.848,-3.296 2.735,-4.496 2.735,-4.496 -1.239,1.795 -3.911,8.151 -1.359,10.95 0.67,-6.339 3.365,-8.479 3.365,-8.479 -2.231,3.555 -4.772,14.467 -0.032,16.674 -0.928,-7.011 1.312,-10.822 1.312,-10.822 -1.414,6.459 -1.367,15.612 3.432,16.448 -2.357,-6.9 -0.682,-12.222 -0.682,-12.222 -0.344,16.141 4.856,15.868 4.856,15.868 0,0 -0.855,-4.583 -0.855,-12.751 l 0,-23.588 c 0,-1.629 -0.14,-2.6 -0.825,-3.457"
         style="fill:#204d9b;fill-opacity:1;fill-rule:nonzero;stroke:none"
         id="path7481"
         inkscape:connector-curvature="0" />
    </g>
    <g
       id="g7483"
       transform="matrix(1.25,0,0,-1.25,472.79171,581.15462)">
      <path
         d="M 0,0 C 2.092,-0.161 3.578,-0.301 5.07,-0.489 5.635,-0.56 5.859,-1.213 5.933,-1.519 5.219,-1.342 4.089,-1.294 4.089,-1.294 L 4.027,-1.973 c 0,0 0.966,0.277 2.024,0.289 0,0 2.171,0.01 2.067,-1.458 -0.592,0.411 -1.804,0.247 -2.146,0.19 C 4.882,-3.131 3.845,-3.636 2.645,-4.271 1.547,-4.852 0.362,-5.477 -1.029,-5.9 c 0.609,0.593 2.202,2.353 2.202,2.353 l -2.123,0.74 1.738,1.518 -2.671,1.447 C -1.216,0.102 -0.586,0.044 0,0 M -3.087,5.717 C -4.07,4.575 -5.347,2.951 -5.07,1.766 c 0,0 0,0 0,-0.001 0.205,-0.981 1.588,-1.585 1.588,-1.585 l 2.972,-1.613 -1.929,-1.685 2.314,-0.731 c 0,0 -2.122,-2.178 -2.365,-2.396 -0.606,-0.102 -1.248,-0.163 -1.938,-0.163 -4.911,0 -11.739,2.901 -13.428,2.923 -2.036,0.024 -4.595,-1.151 -4.595,-1.151 l 1.336,1.448 c 0,0 -1.748,-0.355 -3.444,-0.211 l 2.39,1.626 c -2.099,0.068 -3.938,0.694 -4.804,1.307 0,0 3.865,0.307 9.107,0.251 2.12,-0.023 5.716,-0.236 5.716,-0.236 -1.777,0.756 -3.439,1.753 -4.152,3.503 l 3.389,-0.511 c -1.423,0.873 -3.488,3.057 -3.869,4.748 l 3.779,-1.328 c -0.671,0.73 -3.008,2.921 -3.428,5.46 l 2.991,-1.884 c -0.784,0.791 -2.909,4.989 -2.547,6.216 l 2.788,-1.877 c -1.335,1.653 -2.897,6.031 -1.834,7.737 0.847,-3.3 2.734,-4.502 2.734,-4.502 -1.238,1.797 -3.91,8.162 -1.359,10.964 0.671,-6.347 3.365,-8.49 3.365,-8.49 -2.23,3.559 -4.771,14.486 -0.031,16.695 -0.929,-7.02 1.312,-10.836 1.312,-10.836 -1.414,6.468 -1.368,15.632 3.432,16.469 -2.357,-6.909 -0.683,-12.237 -0.683,-12.237 -0.343,16.161 4.856,15.888 4.856,15.888 0,0 -0.854,-4.588 -0.854,-12.767 l 0,-23.618 c 0,-1.631 -0.14,-2.604 -0.826,-3.462"
         style="fill:#ffffff;fill-opacity:1;fill-rule:nonzero;stroke:none"
         id="path7485"
         inkscape:connector-curvature="0" />
    </g>
    <g
       id="g7487"
       transform="matrix(1.25,0,0,-1.25,449.16572,594.11187)">
      <path
         d="m 0,0 c 0.558,0 1.019,-0.431 1.019,-0.963 0,-0.532 -0.461,-0.963 -1.019,-0.963 -0.557,0 -1.018,0.431 -1.019,0.963 C -1.019,-0.431 -0.557,0 0,0"
         style="fill:#1d1d1b;fill-opacity:1;fill-rule:nonzero;stroke:none"
         id="path7489"
         inkscape:connector-curvature="0" />
    </g>
    <g
       id="g7491"
       transform="matrix(1.25,0,0,-1.25,481.7257,594.11211)">
      <path
         d="m 0,0 c 0.558,0 1.019,-0.431 1.019,-0.963 0,-0.532 -0.461,-0.963 -1.019,-0.963 -0.555,0 -1.019,0.431 -1.019,0.963 C -1.019,-0.431 -0.555,0 0,0"
         style="fill:#1d1d1b;fill-opacity:1;fill-rule:nonzero;stroke:none"
         id="path7493"
         inkscape:connector-curvature="0" />
    </g>
    <g
       id="g7495"
       transform="matrix(1.25,0,0,-1.25,438.3582,601.65999)">
      <path
         d="m 0,0 -0.153,0 c -0.266,0 -0.909,-0.032 -1.394,-0.165 -0.335,-0.092 -0.614,-0.312 -0.614,-0.618 0,-0.432 0.432,-0.621 0.821,-0.621 0.839,0 1.34,0.531 1.34,1.221 L 0,0 Z m 1.629,1.004 0,-3.606 -1.579,0 0,0.606 c -0.413,-0.444 -0.92,-0.725 -1.711,-0.747 -1.244,-0.036 -2.224,0.722 -2.224,1.856 0,1.745 1.859,2.129 3.68,2.128 L 0,1.241 C 0,1.724 -0.214,2.17 -1.175,2.17 -1.828,2.17 -2.382,1.961 -2.776,1.597 l -0.955,0.954 c 0.658,0.647 1.582,0.978 2.602,0.978 1.01,0 1.565,-0.143 2.13,-0.65 C 1.534,2.401 1.629,1.503 1.629,1.004"
         style="fill:#1d1d1b;fill-opacity:1;fill-rule:nonzero;stroke:none"
         id="path7497"
         inkscape:connector-curvature="0" />
    </g>
    <g
       id="g7499"
       transform="matrix(1.25,0,0,-1.25,444.74247,597.42699)">
      <path
         d="m 0,0 0,1.888 -1.701,0 0,-1.888 -1.173,0 0,-1.424 1.173,0 0,-2.542 c 0,-0.851 0.144,-1.357 0.483,-1.696 0.32,-0.318 0.806,-0.468 1.527,-0.468 0.457,0 0.918,0.091 1.276,0.245 l 0,1.347 C 1.37,-4.61 1.056,-4.658 0.664,-4.658 0.136,-4.658 0,-4.369 0,-3.883 l 0,2.459 1.585,0 L 1.585,0 0,0 Z"
         style="fill:#1d1d1b;fill-opacity:1;fill-rule:nonzero;stroke:none"
         id="path7501"
         inkscape:connector-curvature="0" />
    </g>
    <g
       id="g7503"
       transform="matrix(1.25,0,0,-1.25,498.72795,600.33061)">
      <path
         d="M 0,0 C -0.075,0.652 -0.434,1.13 -1.284,1.113 -2.006,1.097 -2.498,0.609 -2.575,0 L 0,0 Z m 1.81,-0.778 0,-0.452 -4.388,0 c 0.029,-0.612 0.72,-1.138 1.534,-1.168 0.761,-0.031 1.177,0.269 1.569,0.695 l 1.082,-0.791 c -0.657,-0.831 -1.469,-1.313 -2.62,-1.313 -1.824,0 -3.314,1.133 -3.314,3.135 0,1.601 0.997,3.137 3.101,3.137 2.166,0 3.036,-1.681 3.036,-3.243"
         style="fill:#1d1d1b;fill-opacity:1;fill-rule:nonzero;stroke:none"
         id="path7505"
         inkscape:connector-curvature="0" />
    </g>
    <path
       inkscape:connector-curvature="0"
       id="path7509"
       style="fill:#1d1d1b;fill-opacity:1;fill-rule:nonzero;stroke:none"
       d="m 429.87721,594.04974 0,7.375 -4.60625,-7.375 -2.87875,0 0,10.86375 2.34125,0 0,-7.62375 4.73375,7.62375 2.75,0 0,-10.86375 -2.34,0 z" />
    <path
       inkscape:connector-curvature="0"
       id="path7513"
       style="fill:#1d1d1b;fill-opacity:1;fill-rule:nonzero;stroke:none"
       d="m 477.65221,597.42736 -1.20625,4.65 -1.2075,-4.65 -2.23125,0 -1.165,4.63875 -1.2075,-4.63875 -2.3525,0 2.3975,7.48625 2.135,0 1.28375,-4.70625 1.44375,4.70625 1.9775,0 2.38875,-7.48625 -2.25625,0 z" />
    <path
       d="m 450.24246,597.42874 -2.15125,0 0,7.485 2.15125,0 0,-7.485 z"
       style="fill:#1d1d1b;fill-opacity:1;fill-rule:nonzero;stroke:none"
       id="path7515"
       inkscape:connector-curvature="0" />
    <path
       d="m 482.80496,597.42874 -2.15375,0 0,7.485 2.15375,0 0,-7.485 z"
       style="fill:#1d1d1b;fill-opacity:1;fill-rule:nonzero;stroke:none"
       id="path7517"
       inkscape:connector-curvature="0" />
    <g
       id="g7527"
       transform="matrix(1.25,0,0,-1.25,466.95557,597.93599)">
      <path
         d="M 0,0 C -0.362,0.376 -0.812,0.553 -1.479,0.548 -2.137,0.544 -2.9,0.224 -3.261,-0.245 l 0,0.65 -1.65,0 0,-5.987 1.722,0 0,3.254 c 0,0.423 0.116,0.736 0.316,0.957 0.174,0.196 0.428,0.32 0.75,0.339 0.39,0.023 0.597,-0.146 0.745,-0.334 0.185,-0.233 0.235,-0.64 0.235,-1.188 l 0,-3.028 1.721,0 0,3.739 C 0.578,-1.111 0.484,-0.504 0,0"
         style="fill:#1d1d1b;fill-opacity:1;fill-rule:nonzero;stroke:none"
         id="path7529"
         inkscape:connector-curvature="0" />
    </g>
    <g
       id="g7531"
       transform="matrix(1.25,0,0,-1.25,489.99672,601.17124)">
      <path
         d="M 0,0 C 0,0.806 -0.522,1.62 -1.523,1.62 -2.52,1.62 -3.042,0.806 -3.042,0 c 0,-0.802 0.522,-1.618 1.519,-1.618 C -0.521,-1.618 0,-0.802 0,0 m 1.675,5.697 0,-8.691 -1.623,0 0,0.666 c -0.379,-0.437 -0.999,-0.807 -1.859,-0.807 -0.827,0 -1.545,0.278 -2.075,0.809 -0.569,0.568 -0.884,1.396 -0.884,2.326 0,1.819 1.219,3.137 2.903,3.137 0.735,0 1.346,-0.226 1.814,-0.668 l 0,3.228 1.724,0 z"
         style="fill:#1d1d1b;fill-opacity:1;fill-rule:nonzero;stroke:none"
         id="path7533"
         inkscape:connector-curvature="0" />
    </g>
    <g
       id="g7535"
       transform="matrix(1.25,0,0,-1.25,455.53272,599.14624)">
      <path
         d="m 0,0 c -0.999,0 -1.519,-0.814 -1.519,-1.618 0,-0.805 0.52,-1.619 1.519,-1.619 0.996,0 1.519,0.814 1.519,1.619 C 1.519,-0.814 0.996,0 0,0 m 3.24,-1.618 c 0,-1.818 -1.36,-3.137 -3.24,-3.137 -1.879,0 -3.24,1.319 -3.24,3.137 0,1.818 1.361,3.136 3.24,3.136 1.88,0 3.24,-1.318 3.24,-3.136"
         style="fill:#1d1d1b;fill-opacity:1;fill-rule:nonzero;stroke:none"
         id="path7537"
         inkscape:connector-curvature="0" />
    </g>
  </g>
</svg>
